<?xml version="1.0" encoding="UTF-8" ?>
<svg width="2828" height="12856" version="1.1" xmlns="http://www.w3.org/2000/svg">
    <path d="M 0 0 L 2828 0 L 2828 951 L 2546 669 Q 1414 -463 283 669 L 0 951" fill="rgb(25,25,25)"/>
    <path d="M 0 1234 L 424 810 Q 1414 -180 2404 810 L 2687 1093 L 2121 1659 L 1838 1376 Q 1414 951 990 1376 L 0 2366" fill="rgb(25,25,25)"/>
    <path d="M 2828 1234 L 1556 2507 L 2121 3073 L 2828 2366" fill="rgb(25,25,25)"/>
    <path d="M 849 1800 L 1131 1517 Q 1414 1234 1697 1517 L 1980 1800 L 1414 2366" fill="rgb(25,25,25)"/>
    <path d="M 0 2649 L 566 3214 L 0 3780 " fill="rgb(25,25,25)"/>
    <path d="M 707 1941 L 2687 3921 L 2121 4487 L 141 2507" fill="rgb(25,25,25)"/>
    <path d="M 2828 2649 L 2263 3214 L 2828 3780 " fill="rgb(25,25,25)"/>
    <path d="M 849 4628 L 1131 4911 Q 1414 5194 1697 4911 L 1980 4628 L 1414 4063" fill="rgb(25,25,25)"/>
    <path d="M 0 5194 L 1273 3921 L 707 3356 L 0 4063" fill="rgb(25,25,25)"/>
    <path d="M 2828 5194 L 2404 5618 Q 1414 6608 424 5618 L 141 5336 L 707 4770 L 990 5053 Q 1414 5477 1838 5053 L 2828 4063" fill="rgb(25,25,25)"/>
    <path d="M 0 6528 L 2828 6528 L 2828 5477 L 2546 5760 Q 1414 6891 283 5760 L 0 5477" fill="rgb(25,25,25)"/>
</svg>